<?xml version="1.0" standalone="no"?>
<!DOCTYPE svg PUBLIC "-//W3C//DTD SVG 20010904//EN"
 "http://www.w3.org/TR/2001/REC-SVG-20010904/DTD/svg10.dtd">
<svg version="1.0" xmlns="http://www.w3.org/2000/svg"
 width="626.000000pt" height="626.000000pt" viewBox="0 0 626.000000 626.000000"
 preserveAspectRatio="xMidYMid meet">

<g transform="translate(0.000000,626.000000) scale(0.100000,-0.100000)"
fill="#000000" stroke="none">

<path d="M3955 4610 c-18 -20 -44 -121 -45 -172 0 -22 -7 -31 -34 -42 -37 -16
-66 -59 -66 -101 0 -14 -9 -33 -20 -42 -11 -10 -20 -23 -20 -30 0 -6 -4 -14
-9 -17 -17 -11 -39 5 -65 45 -36 54 -94 81 -186 88 l-75 6 0 128 c0 114 -2
127 -17 127 -16 0 -18 -13 -18 -130 0 -126 -1 -130 -22 -135 -34 -7 -206 -34
-363 -56 -77 -11 -221 -22 -321 -26 -168 -6 -186 -4 -254 16 -127 39 -252 125
-286 197 -9 19 -20 34 -25 34 -17 0 -9 38 9 45 16 6 16 7 0 19 -10 7 -18 21
-18 30 0 9 -8 16 -20 16 -11 0 -20 -7 -20 -15 0 -7 -8 -19 -17 -25 -13 -8 -14
-13 -5 -16 14 -7 16 -44 2 -44 -6 0 -19 -9 -30 -20 -19 -19 -20 -33 -20 -265
0 -217 2 -244 15 -238 9 3 2 -8 -15 -25 -33 -33 -38 -66 -15 -98 9 -14 15 -53
17 -110 3 -81 5 -90 26 -99 21 -9 22 -14 22 -162 0 -131 -2 -153 -15 -153 -9
0 -18 7 -21 15 -10 24 -24 6 -24 -30 0 -36 14 -54 24 -30 9 25 36 18 36 -10 0
-16 6 -25 15 -25 8 0 15 4 15 9 0 17 54 20 66 3 12 -16 13 -16 19 0 9 24 2 61
-12 66 -7 2 -13 -4 -13 -13 0 -12 -5 -15 -16 -11 -9 3 -22 6 -30 6 -11 0 -14
16 -14 65 0 58 2 65 20 65 11 0 20 7 20 15 0 8 -9 15 -20 15 -18 0 -20 7 -20
85 0 76 2 85 18 85 35 0 53 35 72 143 28 162 42 178 178 202 135 25 530 17
648 -13 225 -58 278 -124 276 -346 -2 -171 -48 -305 -138 -405 l-42 -46 -582
-5 c-530 -5 -584 -7 -593 -22 -8 -12 -7 -21 2 -32 12 -14 124 -16 1141 -16
1017 0 1129 2 1141 16 9 11 10 20 2 32 -9 15 -38 17 -232 20 l-221 2 0 59 0
59 43 -5 c117 -13 192 94 138 197 l-21 40 39 0 c21 0 44 -6 51 -14 13 -17 40
-10 40 9 0 9 24 15 78 19 42 3 82 6 87 6 6 1 27 -2 48 -6 34 -6 39 -4 44 15 3
11 8 21 12 21 16 0 50 -92 56 -155 9 -82 22 -100 61 -85 20 8 40 7 79 -5 121
-35 221 -1 165 55 -24 24 -93 27 -161 6 -82 -25 -119 -2 -119 73 0 15 -17 59
-37 97 -37 69 -37 69 -39 200 -2 129 -1 132 22 145 31 16 30 33 0 47 -22 10
-24 17 -31 134 -4 68 -11 131 -16 141 -14 24 -55 21 -74 -5 -8 -13 -20 -24
-25 -24 -6 -1 -14 -2 -20 -3 -6 -1 -10 -47 -10 -116 0 -103 -2 -117 -21 -136
-11 -11 -28 -19 -37 -17 -15 3 -18 32 -23 303 -6 303 -10 337 -46 377 -22 24
-66 23 -88 -2z m88 -27 c8 -16 17 -50 20 -78 7 -55 4 -52 -13 14 -6 24 -22 54
-35 67 -22 22 -23 24 -5 24 11 0 25 -12 33 -27z m-431 -300 c18 -10 41 -34 52
-53 l19 -35 -39 36 c-21 20 -49 42 -61 48 -29 15 -105 14 -248 -4 -65 -8 -137
-15 -160 -14 -22 1 10 7 70 15 61 7 135 18 165 23 76 14 163 7 202 -16z m-485
-29 c-3 -3 -12 -4 -19 -1 -8 3 -5 6 6 6 11 1 17 -2 13 -5z m1161 -26 c7 -7 11
-30 10 -52 -1 -41 -1 -41 -5 -6 -3 19 -12 43 -20 53 -18 19 -4 24 15 5z m-470
-210 c2 -16 8 -28 13 -28 5 0 9 -13 9 -29 0 -36 19 -50 35 -28 7 10 14 17 17
17 3 0 8 -57 12 -127 3 -71 9 -139 12 -153 l5 -25 -90 -1 -91 0 0 91 c0 79 3
94 20 110 14 13 20 31 20 60 0 29 -6 47 -20 60 -36 33 -17 88 28 83 21 -2 28
-9 30 -30z m-1760 -70 c-19 -6 -31 -20 -37 -41 -8 -28 -9 -29 -10 -8 -1 31 26
61 53 60 18 0 16 -2 -6 -11z m1566 -32 c-36 -16 -44 -27 -55 -70 l-7 -31 -1
33 c-1 39 36 82 71 82 20 -1 19 -2 -8 -14z m16 -39 c-13 -7 -27 -23 -31 -37
-6 -23 -7 -23 -8 -3 -1 25 23 53 47 53 12 0 9 -4 -8 -13z m470 -122 c9 -11 22
-14 46 -9 40 7 45 -7 10 -29 -16 -11 -26 -30 -32 -64 -7 -38 -14 -49 -31 -51
-35 -5 -44 25 -30 101 12 70 16 77 37 52z"/>
<path d="M1107 3014 c-4 -4 -7 -14 -7 -23 0 -15 185 -16 2030 -16 2025 0 2031
0 2028 20 -2 13 -10 19 -23 18 -46 -5 -3982 -2 -4000 3 -11 3 -24 2 -28 -2z"/>
<path d="M2674 2846 c-71 -32 -119 -147 -95 -232 15 -57 50 -106 91 -127 45
-23 130 -19 168 10 108 80 108 256 0 336 -35 26 -121 33 -164 13z m116 -56
c64 -34 72 -193 13 -240 -28 -22 -73 -26 -105 -9 -62 33 -63 212 -1 248 23 13
69 14 93 1z"/>
<path d="M3625 2847 c-58 -27 -85 -79 -65 -127 15 -35 44 -56 117 -81 68 -23
83 -35 83 -63 0 -33 -19 -46 -69 -46 -55 0 -66 6 -75 43 -5 22 -12 27 -36 27
-27 0 -30 -3 -30 -34 0 -71 90 -112 199 -90 51 11 81 46 81 97 0 61 -20 81
-115 120 -63 26 -81 37 -83 55 -5 36 15 52 68 52 49 0 65 -10 72 -45 2 -13 13
-21 31 -23 26 -3 27 -1 27 40 0 38 -4 46 -31 62 -40 24 -135 31 -174 13z"/>
<path d="M4480 2843 c-105 -55 -132 -224 -49 -318 53 -60 153 -72 218 -25 100
70 99 260 0 331 -43 31 -122 36 -169 12z m121 -53 c30 -17 49 -64 49 -125 0
-88 -33 -135 -95 -135 -68 0 -99 51 -93 153 3 61 7 72 31 93 30 25 75 31 108
14z"/>
<path d="M1139 2848 c0 -2 -1 -23 -2 -48 -2 -42 0 -45 25 -48 21 -3 27 1 30
20 2 19 10 24 41 26 l37 3 0 -135 c0 -126 -1 -135 -20 -141 -13 -4 -20 -15
-20 -31 0 -23 2 -24 75 -24 73 0 75 1 75 24 0 16 -7 27 -20 31 -19 6 -20 15
-20 141 l0 134 35 0 c29 0 36 -4 41 -25 4 -18 13 -25 30 -25 22 0 24 4 24 50
l0 50 -165 0 c-91 0 -165 -1 -166 -2z"/>
<path d="M1667 2803 c-9 -27 -35 -101 -58 -165 -27 -78 -46 -118 -56 -118 -9
0 -13 -8 -11 -22 3 -21 9 -23 66 -26 60 -3 62 -2 62 22 0 13 -5 26 -12 28 -7
3 -9 14 -4 31 6 26 9 27 70 27 61 0 64 -1 71 -27 4 -17 2 -29 -4 -31 -6 -2
-11 -15 -11 -28 0 -24 2 -25 63 -22 54 3 62 6 65 24 2 14 -3 23 -15 26 -13 4
-33 49 -73 167 l-55 161 -40 0 c-40 0 -42 -1 -58 -47z m79 -95 c9 -29 19 -59
22 -65 3 -9 -9 -13 -42 -13 -25 0 -46 1 -46 3 0 2 7 26 16 53 9 27 17 55 20
62 6 21 12 14 30 -40z"/>
<path d="M1980 2831 c0 -10 9 -21 20 -24 19 -5 20 -14 20 -140 0 -127 -1 -136
-20 -142 -13 -4 -20 -15 -20 -31 0 -23 2 -24 75 -24 73 0 75 1 75 24 0 16 -7
27 -20 31 -19 6 -20 15 -20 142 0 126 1 135 20 140 11 3 20 14 20 24 0 17 -8
19 -75 19 -67 0 -75 -2 -75 -19z"/>
<path d="M2210 2831 c0 -10 9 -21 20 -24 19 -5 20 -14 20 -142 0 -128 -1 -137
-20 -142 -13 -4 -20 -14 -20 -29 l0 -25 143 3 142 3 3 53 c3 52 3 52 -27 52
-23 0 -30 -5 -33 -22 -3 -21 -9 -23 -58 -23 l-55 0 0 135 c0 132 0 135 23 138
14 2 22 10 22 23 0 17 -8 19 -80 19 -72 0 -80 -2 -80 -19z"/>
<path d="M3000 2831 c0 -10 9 -21 20 -24 19 -5 20 -14 20 -140 0 -127 -1 -136
-20 -142 -13 -4 -20 -15 -20 -31 0 -23 2 -24 75 -24 72 0 75 1 75 24 0 15 -7
26 -20 29 -17 4 -20 14 -20 56 l0 51 44 0 c55 0 76 -19 76 -70 0 -48 24 -77
73 -86 35 -6 37 -5 37 19 0 14 -7 27 -15 31 -9 3 -15 19 -15 41 0 27 -8 44
-30 67 l-30 30 25 20 c19 15 25 29 25 59 0 88 -36 109 -190 109 -101 0 -110
-2 -110 -19z m208 -47 c24 -17 30 -62 10 -82 -7 -7 -34 -12 -60 -12 l-48 0 0
55 0 55 38 0 c21 0 48 -7 60 -16z"/>
<path d="M3919 2848 c-8 -27 -5 -38 12 -38 18 0 19 -9 19 -141 0 -134 -1 -141
-21 -146 -14 -4 -19 -12 -17 -27 3 -19 10 -21 81 -24 76 -3 77 -2 77 21 0 16
-7 26 -20 30 -17 4 -20 14 -20 56 l0 51 80 0 80 0 0 -49 c0 -41 -4 -51 -20
-56 -13 -4 -20 -15 -20 -31 0 -23 2 -24 75 -24 72 0 75 1 75 24 0 15 -7 26
-20 29 -19 5 -20 14 -20 142 0 128 1 137 20 142 11 3 20 14 20 24 0 17 -8 19
-75 19 -67 0 -75 -2 -75 -19 0 -10 9 -21 20 -24 17 -4 20 -14 20 -61 l0 -56
-80 0 -80 0 0 56 c0 47 3 57 20 61 11 3 20 14 20 24 0 17 -8 19 -75 19 -41 0
-75 -1 -76 -2z"/>
<path d="M4800 2831 c0 -13 8 -21 23 -23 21 -3 22 -6 25 -140 l3 -137 -26 -7
c-19 -5 -25 -12 -23 -28 3 -19 10 -21 81 -24 76 -3 77 -2 77 21 0 16 -7 26
-20 30 -16 4 -20 14 -20 46 l0 41 45 0 c57 0 119 25 139 55 18 28 21 93 5 128
-21 46 -56 57 -188 57 -113 0 -121 -1 -121 -19z m230 -51 c27 -27 26 -75 -2
-94 -12 -9 -42 -16 -65 -16 l-43 0 0 65 0 65 45 0 c32 0 51 -6 65 -20z"/>
<path d="M1102 2287 c3 -17 99 -17 2028 -17 1926 0 2025 1 2028 17 3 17 -94
18 -2028 18 -1937 0 -2031 -1 -2028 -18z"/>
<path d="M2995 2074 c-258 -26 -362 -45 -538 -96 -64 -18 -106 -35 -104 -42 2
-6 28 -76 58 -156 29 -80 54 -146 54 -148 1 -1 58 13 127 32 203 56 316 70
538 70 222 0 335 -14 538 -70 69 -19 126 -33 127 -32 8 14 116 310 113 313 -7
6 -176 55 -258 74 -178 41 -514 69 -655 55z m131 -126 c16 -30 17 -31 30 -13
8 10 14 22 14 27 0 4 11 8 25 8 22 0 25 -4 25 -32 0 -59 -12 -108 -26 -108
-10 0 -14 13 -14 42 0 41 0 42 -16 20 -19 -28 -28 -28 -42 1 -9 20 -11 17 -11
-20 -1 -36 -4 -43 -21 -43 -18 0 -20 7 -20 68 0 38 3 72 7 75 14 15 33 5 49
-25z m-126 7 c0 -10 -11 -15 -35 -15 -24 0 -35 -5 -35 -15 0 -10 10 -15 30
-15 20 0 30 -5 30 -15 0 -10 -10 -15 -30 -15 -19 0 -30 -5 -30 -14 0 -11 10
-13 40 -9 31 4 40 2 40 -9 0 -10 -14 -18 -37 -22 -70 -11 -70 -12 -77 59 -4
36 -4 70 -1 75 4 6 28 10 56 10 37 0 49 -4 49 -15z m330 -7 c0 -63 -14 -128
-26 -128 -10 0 -14 16 -14 59 0 33 3 66 6 75 9 24 34 19 34 -6z m105 -49 c0
-47 3 -54 21 -57 23 -3 34 19 34 69 0 31 7 39 26 32 10 -4 12 -16 8 -47 -10
-62 -28 -86 -69 -86 -46 0 -67 30 -59 84 8 58 12 68 27 63 7 -2 12 -23 12 -58z
m-617 6 c2 -15 -1 -32 -7 -38 -8 -8 -5 -18 11 -34 21 -23 21 -23 1 -23 -11 0
-28 9 -38 20 -20 22 -35 18 -35 -10 0 -10 -6 -20 -14 -23 -16 -6 -21 9 -32 90
l-6 52 38 3 c57 5 78 -5 82 -37z m836 -20 c8 -30 17 -31 41 -5 10 11 24 20 32
20 16 0 17 -23 1 -90 -9 -37 -16 -50 -27 -47 -17 3 -17 6 -7 52 7 29 7 29 -13
11 -21 -19 -41 -14 -41 10 0 29 -18 13 -24 -22 -4 -21 -12 -34 -19 -31 -14 5
-14 47 2 105 10 37 14 41 30 32 10 -5 22 -21 25 -35z m-1026 13 c7 -7 12 -25
12 -41 0 -23 -6 -31 -30 -40 -21 -8 -30 -18 -30 -34 0 -13 -6 -23 -14 -23 -12
0 -41 87 -41 125 0 20 84 32 103 13z"/>
<path d="M2740 1889 c0 -15 4 -19 16 -15 9 3 20 6 25 6 5 0 9 7 9 15 0 9 -9
15 -25 15 -19 0 -25 -5 -25 -21z"/>
<path d="M2565 1870 c-3 -5 -2 -17 2 -25 8 -13 12 -13 27 -2 11 8 16 19 12 25
-9 15 -33 16 -41 2z"/>
<path d="M2295 2016 c-157 -53 -165 -56 -164 -65 0 -3 32 -31 70 -61 l70 -55
-7 -94 c-6 -90 -6 -94 12 -86 11 4 45 16 77 27 31 11 57 21 57 23 0 1 -21 58
-46 125 -25 66 -44 123 -43 124 36 28 117 106 112 106 -5 0 -66 -20 -138 -44z"/>
<path d="M3884 2004 l58 -55 -40 -107 c-22 -59 -43 -114 -47 -123 -5 -13 10
-22 69 -43 41 -14 76 -26 78 -26 2 0 1 30 -3 68 -14 118 -16 112 61 172 39 30
70 58 70 61 0 4 -8 10 -17 14 -44 18 -164 58 -223 75 l-65 19 59 -55z"/>
</g>
</svg>
